<svg width="1117" height="1119" viewBox="0 0 1117 1119" fill="none" xmlns="http://www.w3.org/2000/svg">
<path d="M0 559.5C0 251.049 250.049 0 558.5 0V0C866.951 0 1117 251.049 1117 559.5V559.5C1117 867.951 866.951 1119 558.5 1119V1119C250.049 1119 0 867.951 0 559.5V559.5Z" fill="#2A354B"/>
<path d="M392.391 552.277L362.304 537.832V663.027C362.304 674.584 362.304 677.473 377.348 687.103L507.727 759.332V725.625C475.968 707.969 410.444 671.695 402.421 667.842C394.397 663.99 392.391 655.074 392.391 651.098V552.277Z" fill="url(#paint0_linear_30_66)"/>
<path d="M327.202 446.342L302.129 431.897L302.128 696.733V696.735C302.129 706.365 302.129 711.18 312.158 715.994L507.726 821.929V788.223C475.967 770.567 350.269 705.401 342.246 701.549C332.216 696.733 327.202 691.918 327.202 687.103V446.342Z" fill="url(#paint1_linear_30_66)"/>
<path d="M778.514 451.158L803.587 436.712L803.588 701.549V701.55C803.587 711.18 803.587 715.995 793.558 720.81L603.005 821.93V788.223C634.764 770.567 755.447 710.216 763.471 706.364C773.5 701.549 778.514 696.734 778.514 691.919V451.158Z" fill="url(#paint2_linear_30_66)"/>
<path d="M718.34 547.462L748.427 533.016V658.212C748.427 669.768 748.427 672.657 733.384 682.288L603.004 754.516V720.81C634.763 703.154 700.287 666.879 708.311 663.027C716.334 659.175 718.34 650.259 718.34 646.282V547.462Z" fill="url(#paint3_linear_30_66)"/>
<path d="M688.252 629.321V561.907L658.165 581.168V624.505C658.165 632.21 664.851 634.136 668.194 634.136H678.223C686.247 634.136 688.252 630.926 688.252 629.321Z" fill="url(#paint4_linear_30_66)"/>
<path d="M628.078 629.321L597.99 614.875V658.212C597.99 669.768 601.333 672.658 603.005 672.658C606.348 672.658 615.04 671.695 623.063 667.842C631.086 663.99 633.092 656.607 633.092 653.397V638.951C633.092 635.099 629.749 630.926 628.078 629.321Z" fill="url(#paint5_linear_30_66)"/>
<path d="M547.844 494.494C539.821 494.494 537.815 500.914 537.815 504.125V537.831C537.815 545.535 544.501 547.462 547.844 547.462H557.873C565.897 547.462 567.902 541.041 567.902 537.831V504.125C567.902 496.42 561.216 494.494 557.873 494.494H547.844Z" fill="url(#paint6_linear_30_66)"/>
<path d="M547.844 590.829C542.83 590.829 537.815 591.75 537.815 600.43V850.821C537.815 858.723 544.501 860.421 547.844 860.421H557.873C561.231 860.421 567.902 858.723 567.902 850.821V600.43C567.902 590.855 561.216 590.829 557.873 590.829H547.844Z" fill="url(#paint7_linear_30_66)"/>
<path d="M773.501 383.744L763.472 388.559L603.005 470.418C582.946 480.048 582.946 484.864 592.976 489.679L603.005 494.494C615.04 502.198 621.392 500.914 623.063 499.309L793.559 407.82C801.583 403.968 803.588 403.005 798.574 398.19L783.53 383.744C779.518 379.892 773.501 383.744 773.501 383.744Z" fill="url(#paint8_linear_30_66)"/>
<path d="M329.936 380.642L339.965 385.457L500.432 467.315C520.49 476.946 520.49 481.761 510.461 486.576L500.432 491.391C488.397 499.096 482.045 497.812 480.373 496.207L309.877 404.717C301.854 400.865 299.848 399.902 304.863 395.087L319.906 380.642C323.918 376.789 329.936 380.642 329.936 380.642Z" fill="url(#paint9_linear_30_66)"/>
<path d="M572.917 446.342C556.87 438.637 539.486 443.132 532.8 446.342C522.771 451.158 516.084 452.762 512.741 451.157C509.398 449.551 501.709 445.378 497.698 441.526C492.684 436.712 492.396 434.805 497.697 431.897C509.397 425.476 542.626 408.015 542.829 407.82C547.844 403.006 557.872 403.005 562.887 407.82C567.902 411.03 583.062 417.525 597.99 427.081C613.033 436.711 613.033 436.711 608.019 441.526L608.018 441.526L597.99 446.342C589.966 450.194 584.617 451.157 582.946 451.157C581.274 451.157 574.288 447 572.917 446.342Z" fill="url(#paint10_linear_30_66)"/>
<path d="M658.165 412.636C646.13 420.341 633.092 415.846 628.078 412.636C613.034 404.611 579.937 386.634 567.902 378.93C555.867 371.225 546.172 375.72 542.83 378.93C521.1 390.165 476.637 413.599 472.625 417.451C468.613 421.304 457.581 419.056 452.567 417.451C449.224 415.846 441.535 411.673 437.523 407.821C433.511 403.969 435.852 399.796 437.523 398.191C469.282 380.535 534.806 344.26 542.83 340.408C550.853 336.556 559.545 338.803 562.888 340.408C592.975 358.064 655.156 394.338 663.18 398.191C673.209 403.006 673.209 403.006 658.165 412.636Z" fill="url(#paint11_linear_30_66)"/>
<path d="M236.939 398.19L272.042 407.821V403.006C272.042 395.301 278.728 390.165 282.071 388.56L332.217 359.669L317.173 330.777C297.115 342.013 254.992 365.447 246.969 369.299C238.945 373.151 236.939 380.535 236.939 383.745V398.19Z" fill="url(#paint12_linear_30_66)"/>
<path d="M236.939 398.19L272.042 407.82V720.81C272.042 724.662 275.385 728.835 277.056 730.44C362.304 776.987 534.806 871.044 542.829 874.896C550.853 878.749 559.545 876.502 562.888 874.896L572.917 870.081C656.493 825.139 824.649 734.292 828.661 730.44C832.673 726.588 833.676 722.066 833.676 720.286V403.005C833.676 395.301 830.333 390.165 828.661 388.56C743.413 342.012 570.911 247.955 562.888 244.103C554.864 240.251 546.173 242.498 542.829 244.103L332.217 359.668L317.173 330.777C389.049 290.65 534.806 209.434 542.829 205.581C550.853 201.729 559.545 203.976 562.888 205.581L853.734 364.484C861.757 368.336 868.778 378.929 868.778 383.744V735.255C868.778 739.107 865.435 743.281 863.763 744.886C766.815 799.458 570.911 909.566 562.888 913.418C554.864 917.27 546.173 915.023 542.829 913.418L251.789 749.696C246.715 749.455 236.939 739.948 236.939 730.44V398.19Z" fill="url(#paint13_linear_30_66)"/>
<path d="M733.383 374.113L723.354 378.929C721.683 378.929 713.893 383.199 713.325 383.744C709.314 387.596 698.282 385.349 693.267 383.744C653.15 361.273 570.911 315.368 562.888 311.516C554.864 307.663 546.172 309.911 542.829 311.516C501.041 333.987 416.462 379.892 412.45 383.744C408.438 387.596 400.749 385.349 397.406 383.744L377.347 374.113C369.324 370.261 374.004 366.088 377.347 364.483L547.843 272.994C547.843 272.994 552.858 268.179 557.873 272.994C611.362 301.885 720.345 360.631 728.369 364.483C736.392 368.335 735.055 372.508 733.383 374.113Z" fill="url(#paint14_linear_30_66)"/>
<path d="M733.383 374.113L723.354 378.929C721.683 378.929 713.893 383.199 713.325 383.744C709.314 387.596 698.282 385.349 693.267 383.744C653.15 361.273 570.911 315.368 562.888 311.516C554.864 307.663 546.172 309.911 542.829 311.516C501.041 333.987 416.462 379.892 412.45 383.744C408.438 387.596 400.749 385.349 397.406 383.744L377.347 374.113C369.324 370.261 374.004 366.088 377.347 364.483L547.843 272.994C547.843 272.994 552.858 268.179 557.873 272.994C611.362 301.885 720.345 360.631 728.369 364.483C736.392 368.335 735.055 372.508 733.383 374.113Z" fill="url(#paint15_linear_30_66)"/>
<path d="M688.253 528.201L633.092 557.092V600.429L582.946 576.353C566.9 568.648 576.26 557.092 582.946 552.277L688.253 494.494V528.201Z" fill="url(#paint16_linear_30_66)"/>
<path d="M422.479 528.201L477.64 557.092V600.429L527.786 576.353C543.832 568.648 534.472 557.092 527.786 552.277L422.479 494.494V528.201Z" fill="url(#paint17_linear_30_66)"/>
<path d="M718.34 518.57V480.048L748.428 465.603V504.125L718.34 518.57Z" fill="url(#paint18_linear_30_66)"/>
<path d="M422.479 629.321V561.907L452.567 581.168V624.505C452.567 632.21 445.881 634.136 442.537 634.136H432.508C424.485 634.136 422.479 630.926 422.479 629.321Z" fill="url(#paint19_linear_30_66)"/>
<path d="M477.64 624.505L507.728 610.06V653.397C507.728 664.953 504.384 667.842 502.713 667.842C499.37 667.842 490.678 666.879 482.655 663.027C474.631 659.175 472.625 651.791 472.625 648.581V634.136C472.625 630.283 475.968 626.11 477.64 624.505Z" fill="url(#paint20_linear_30_66)"/>
<path d="M392.392 518.57V480.048L362.304 465.603V504.125L392.392 518.57Z" fill="url(#paint21_linear_30_66)"/>
<defs>
<linearGradient id="paint0_linear_30_66" x1="437.324" y1="421.003" x2="431.493" y2="883.794" gradientUnits="userSpaceOnUse">
<stop offset="0.173644" stop-color="#FFD8B0"/>
<stop offset="0.85361" stop-color="#D17361"/>
</linearGradient>
<linearGradient id="paint1_linear_30_66" x1="408.19" y1="226.177" x2="395.403" y2="1041.02" gradientUnits="userSpaceOnUse">
<stop offset="0.173644" stop-color="#FFD8B0"/>
<stop offset="0.85361" stop-color="#D17361"/>
</linearGradient>
<linearGradient id="paint2_linear_30_66" x1="700.113" y1="233.532" x2="712.898" y2="1038.31" gradientUnits="userSpaceOnUse">
<stop offset="0.173644" stop-color="#FFD8B0"/>
<stop offset="0.85361" stop-color="#D17361"/>
</linearGradient>
<linearGradient id="paint3_linear_30_66" x1="673.408" y1="416.188" x2="679.239" y2="878.978" gradientUnits="userSpaceOnUse">
<stop offset="0.173644" stop-color="#FFD8B0"/>
<stop offset="0.85361" stop-color="#D17361"/>
</linearGradient>
<linearGradient id="paint4_linear_30_66" x1="673.686" y1="523.811" x2="670.69" y2="674.686" gradientUnits="userSpaceOnUse">
<stop offset="0.173644" stop-color="#FFD8B0"/>
<stop offset="0.85361" stop-color="#D17361"/>
</linearGradient>
<linearGradient id="paint5_linear_30_66" x1="616.098" y1="584.398" x2="614.454" y2="705.123" gradientUnits="userSpaceOnUse">
<stop offset="0.173644" stop-color="#FFD8B0"/>
<stop offset="0.85361" stop-color="#D17361"/>
</linearGradient>
<linearGradient id="paint6_linear_30_66" x1="553.336" y1="466.557" x2="551.725" y2="577.218" gradientUnits="userSpaceOnUse">
<stop offset="0.173644" stop-color="#FFD8B0"/>
<stop offset="0.85361" stop-color="#D17361"/>
</linearGradient>
<linearGradient id="paint7_linear_30_66" x1="553.336" y1="448.635" x2="511.808" y2="1008.92" gradientUnits="userSpaceOnUse">
<stop offset="0.173644" stop-color="#FFD8B0"/>
<stop offset="0.85361" stop-color="#D17361"/>
</linearGradient>
<linearGradient id="paint8_linear_30_66" x1="697.259" y1="319.533" x2="696.13" y2="567.144" gradientUnits="userSpaceOnUse">
<stop offset="0.173644" stop-color="#FFD8B0"/>
<stop offset="0.85361" stop-color="#D17361"/>
</linearGradient>
<linearGradient id="paint9_linear_30_66" x1="406.177" y1="316.43" x2="407.307" y2="564.041" gradientUnits="userSpaceOnUse">
<stop offset="0.173644" stop-color="#FFD8B0"/>
<stop offset="0.85361" stop-color="#D17361"/>
</linearGradient>
<linearGradient id="paint10_linear_30_66" x1="554.283" y1="379.129" x2="553.95" y2="478.492" gradientUnits="userSpaceOnUse">
<stop offset="0.173644" stop-color="#FFD8B0"/>
<stop offset="0.85361" stop-color="#D17361"/>
</linearGradient>
<linearGradient id="paint11_linear_30_66" x1="556.467" y1="295.401" x2="555.98" y2="465.285" gradientUnits="userSpaceOnUse">
<stop offset="0.173644" stop-color="#FFD8B0"/>
<stop offset="0.85361" stop-color="#D17361"/>
</linearGradient>
<linearGradient id="paint12_linear_30_66" x1="286.09" y1="289.499" x2="284.979" y2="453.032" gradientUnits="userSpaceOnUse">
<stop offset="0.173644" stop-color="#FFD8B0"/>
<stop offset="0.85361" stop-color="#D17361"/>
</linearGradient>
<linearGradient id="paint13_linear_30_66" x1="562.888" y1="-172.133" x2="549.016" y2="1315.78" gradientUnits="userSpaceOnUse">
<stop offset="0.173644" stop-color="#FFD8B0"/>
<stop offset="0.85361" stop-color="#D17361"/>
</linearGradient>
<linearGradient id="paint14_linear_30_66" x1="559.526" y1="210.189" x2="558.894" y2="450.536" gradientUnits="userSpaceOnUse">
<stop offset="0.173644" stop-color="#FFD8B0"/>
<stop offset="0.85361" stop-color="#D17361"/>
</linearGradient>
<linearGradient id="paint15_linear_30_66" x1="559.526" y1="210.189" x2="558.894" y2="450.536" gradientUnits="userSpaceOnUse">
<stop offset="0.173644" stop-color="#FFD8B0"/>
<stop offset="0.85361" stop-color="#D17361"/>
</linearGradient>
<linearGradient id="paint16_linear_30_66" x1="632.982" y1="438.62" x2="631.283" y2="659.976" gradientUnits="userSpaceOnUse">
<stop offset="0.173644" stop-color="#FFD8B0"/>
<stop offset="0.85361" stop-color="#D17361"/>
</linearGradient>
<linearGradient id="paint17_linear_30_66" x1="477.75" y1="438.62" x2="479.449" y2="659.976" gradientUnits="userSpaceOnUse">
<stop offset="0.173644" stop-color="#FFD8B0"/>
<stop offset="0.85361" stop-color="#D17361"/>
</linearGradient>
<linearGradient id="paint18_linear_30_66" x1="733.862" y1="437.666" x2="732.25" y2="548.327" gradientUnits="userSpaceOnUse">
<stop offset="0.173644" stop-color="#FFD8B0"/>
<stop offset="0.85361" stop-color="#D17361"/>
</linearGradient>
<linearGradient id="paint19_linear_30_66" x1="437.045" y1="523.811" x2="440.041" y2="674.686" gradientUnits="userSpaceOnUse">
<stop offset="0.173644" stop-color="#FFD8B0"/>
<stop offset="0.85361" stop-color="#D17361"/>
</linearGradient>
<linearGradient id="paint20_linear_30_66" x1="489.619" y1="579.583" x2="491.263" y2="700.307" gradientUnits="userSpaceOnUse">
<stop offset="0.173644" stop-color="#FFD8B0"/>
<stop offset="0.85361" stop-color="#D17361"/>
</linearGradient>
<linearGradient id="paint21_linear_30_66" x1="376.87" y1="437.666" x2="378.482" y2="548.327" gradientUnits="userSpaceOnUse">
<stop offset="0.173644" stop-color="#FFD8B0"/>
<stop offset="0.85361" stop-color="#D17361"/>
</linearGradient>
</defs>
</svg>
